<svg width="32" height="28" viewBox="0 0 32 28" fill="none" xmlns="http://www.w3.org/2000/svg">
<path d="M10.1357 0.0233805C12.0071 -0.24084 13.9896 1.76412 14.5605 4.53066C15.1315 7.28166 14.1006 9.73735 12.2292 10.0171C10.3736 10.2969 8.3753 8.29191 7.7885 5.52537C7.2017 2.77438 8.26429 0.318685 10.1357 0.0233805ZM21.4753 0.0233805C23.3626 0.318685 24.4093 2.77438 23.8542 5.52537C23.2516 8.29191 21.2691 10.2969 19.3977 10.0171C17.5104 9.73735 16.4795 7.28166 17.0663 4.53066C17.6373 1.76412 19.6197 -0.24084 21.4753 0.0233805ZM1.65086 7.17286C3.45884 6.41129 5.91707 7.79456 7.2017 10.2036C8.40702 12.6593 7.99467 15.2393 6.20255 16.0009C4.41042 16.7625 1.96805 15.3948 0.715142 12.9546C-0.537762 10.5145 -0.093695 7.9189 1.65086 7.17286ZM30.198 7.17286C31.9426 7.9189 32.3867 10.5145 31.1338 12.9546C29.8809 15.3948 27.4385 16.7625 25.6464 16.0009C23.8542 15.2393 23.4419 12.6593 24.6472 10.2036C25.9318 7.79456 28.3901 6.41129 30.198 7.17286ZM27.5495 23.9275C27.6129 25.3885 26.4711 27.0049 25.1071 27.6111C22.2683 28.8855 18.906 26.2433 15.75 26.2433C12.5939 26.2433 9.2 28.9943 6.40872 27.6111C4.82277 26.8495 3.72846 24.829 3.93463 23.1504C4.2201 20.8346 7.05896 19.5912 8.74007 17.8971C10.9763 15.7056 12.5622 11.5869 15.75 11.5869C18.9219 11.5869 20.603 15.6434 22.7441 17.8971C24.5045 19.7933 27.4385 21.3941 27.5495 23.9275Z" fill="white"/>
</svg>

