<svg width="41" height="41" viewBox="0 0 41 41" fill="none" xmlns="http://www.w3.org/2000/svg">
<mask id="path-1-inside-1_1701_462" fill="white">
<path d="M19.5438 30.5745L31.856 18.2622C29.7846 17.3974 27.9033 16.1338 26.3192 14.5433C24.728 12.9588 23.4638 11.0769 22.5986 9.00474L10.2863 21.317C9.32576 22.2775 8.84466 22.7586 8.43181 23.288C7.94423 23.9127 7.52614 24.5887 7.18494 25.304C6.89694 25.9099 6.68219 26.5559 6.2527 27.8443L3.98535 34.6414C3.881 34.9526 3.86551 35.2867 3.94064 35.6063C4.01577 35.9258 4.17854 36.218 4.41064 36.4501C4.64274 36.6823 4.93498 36.845 5.25451 36.9201C5.57404 36.9953 5.90819 36.9798 6.2194 36.8754L13.0164 34.6081C14.3066 34.1786 14.9508 33.9638 15.5568 33.6758C16.2726 33.3346 16.9485 32.9167 17.5728 32.429C18.1022 32.0161 18.5833 31.535 19.5438 30.5745ZM35.272 14.8462C36.4997 13.6186 37.1893 11.9536 37.1893 10.2175C37.1893 8.48137 36.4997 6.81636 35.272 5.58874C34.0444 4.36112 32.3794 3.67145 30.6433 3.67145C28.9072 3.67145 27.2422 4.36112 26.0146 5.58874L24.538 7.06534L24.6012 7.25013C25.3289 9.33222 26.5197 11.222 28.0838 12.777C29.6853 14.3879 31.6412 15.6022 33.7954 16.3228L35.272 14.8462Z"/>
</mask>
<path d="M19.5438 30.5745L31.856 18.2622C29.7846 17.3974 27.9033 16.1338 26.3192 14.5433C24.728 12.9588 23.4638 11.0769 22.5986 9.00474L10.2863 21.317C9.32576 22.2775 8.84466 22.7586 8.43181 23.288C7.94423 23.9127 7.52614 24.5887 7.18494 25.304C6.89694 25.9099 6.68219 26.5559 6.2527 27.8443L3.98535 34.6414C3.881 34.9526 3.86551 35.2867 3.94064 35.6063C4.01577 35.9258 4.17854 36.218 4.41064 36.4501C4.64274 36.6823 4.93498 36.845 5.25451 36.9201C5.57404 36.9953 5.90819 36.9798 6.2194 36.8754L13.0164 34.6081C14.3066 34.1786 14.9508 33.9638 15.5568 33.6758C16.2726 33.3346 16.9485 32.9167 17.5728 32.429C18.1022 32.0161 18.5833 31.535 19.5438 30.5745ZM35.272 14.8462C36.4997 13.6186 37.1893 11.9536 37.1893 10.2175C37.1893 8.48137 36.4997 6.81636 35.272 5.58874C34.0444 4.36112 32.3794 3.67145 30.6433 3.67145C28.9072 3.67145 27.2422 4.36112 26.0146 5.58874L24.538 7.06534L24.6012 7.25013C25.3289 9.33222 26.5197 11.222 28.0838 12.777C29.6853 14.3879 31.6412 15.6022 33.7954 16.3228L35.272 14.8462Z" fill="#F8F8F8"/>
<path d="M31.856 18.2622L32.5632 18.9693L33.6182 17.9143L32.2413 17.3394L31.856 18.2622ZM26.3192 14.5433L27.0277 13.8376L27.0248 13.8346L26.3192 14.5433ZM22.5986 9.00474L23.5213 8.61944L22.9465 7.2426L21.8914 8.29763L22.5986 9.00474ZM10.2863 21.317L10.9934 22.0241L10.2863 21.317ZM8.43181 23.288L9.22013 23.9033L9.22036 23.903L8.43181 23.288ZM7.18494 25.304L6.28237 24.8734L6.28176 24.8747L7.18494 25.304ZM6.2527 27.8443L7.20131 28.1608L7.20138 28.1606L6.2527 27.8443ZM3.98535 34.6414L4.93347 34.9593L4.93396 34.9578L3.98535 34.6414ZM6.2194 36.8754L5.90296 35.9268L5.90148 35.9273L6.2194 36.8754ZM13.0164 34.6081L12.7006 33.6593L12.7 33.6595L13.0164 34.6081ZM15.5568 33.6758L15.9861 34.579L15.9871 34.5785L15.5568 33.6758ZM17.5728 32.429L16.9578 31.6404L16.9571 31.641L17.5728 32.429ZM35.272 14.8462L34.5649 14.1391H34.5649L35.272 14.8462ZM37.1893 10.2175H36.1893H37.1893ZM24.538 7.06534L23.8308 6.35823L23.3899 6.79921L23.5919 7.38923L24.538 7.06534ZM24.6012 7.25013L23.6551 7.57402L23.6572 7.58005L24.6012 7.25013ZM28.0838 12.777L28.793 12.0719L28.7888 12.0678L28.0838 12.777ZM33.7954 16.3228L33.4782 17.2712L34.065 17.4675L34.5026 17.0299L33.7954 16.3228ZM20.2509 31.2816L32.5632 18.9693L31.1489 17.5551L18.8367 29.8674L20.2509 31.2816ZM32.2413 17.3394C30.2908 16.5251 28.5193 15.3352 27.0277 13.8376L25.6107 15.2489C27.2872 16.9323 29.2783 18.2697 31.4708 19.185L32.2413 17.3394ZM27.0248 13.8346C25.5264 12.3427 24.336 10.5707 23.5213 8.61944L21.6758 9.39003C22.5915 11.5832 23.9295 13.5749 25.6136 15.2519L27.0248 13.8346ZM21.8914 8.29763L9.5792 20.6099L10.9934 22.0241L23.3057 9.71184L21.8914 8.29763ZM9.5792 20.6099C8.63537 21.5537 8.10267 22.084 7.64326 22.673L9.22036 23.903C9.58666 23.4333 10.0162 23.0013 10.9934 22.0241L9.5792 20.6099ZM7.64349 22.6727C7.11123 23.3547 6.65483 24.0926 6.28237 24.8734L8.08751 25.7345C8.39744 25.0848 8.77722 24.4708 9.22013 23.9033L7.64349 22.6727ZM6.28176 24.8747C5.96149 25.5486 5.72588 26.2625 5.30401 27.5281L7.20138 28.1606C7.6385 26.8492 7.83239 26.2713 8.08812 25.7332L6.28176 24.8747ZM5.30408 27.5279L3.03674 34.3249L4.93396 34.9578L7.20131 28.1608L5.30408 27.5279ZM3.03723 34.3235C2.87374 34.811 2.84948 35.3346 2.96719 35.8352L4.9141 35.3774C4.88154 35.2389 4.88825 35.0942 4.93347 34.9593L3.03723 34.3235ZM2.96719 35.8352C3.08489 36.3358 3.3399 36.7936 3.70353 37.1573L5.11775 35.743C5.01718 35.6425 4.94665 35.5158 4.9141 35.3774L2.96719 35.8352ZM3.70353 37.1573C4.06717 37.5209 4.52502 37.7759 5.02563 37.8936L5.48339 35.9467C5.34494 35.9141 5.21832 35.8436 5.11775 35.743L3.70353 37.1573ZM5.02563 37.8936C5.52623 38.0113 6.04975 37.987 6.53732 37.8236L5.90148 35.9273C5.76663 35.9725 5.62184 35.9792 5.48339 35.9467L5.02563 37.8936ZM6.53584 37.824L13.3329 35.5567L12.7 33.6595L5.90296 35.9268L6.53584 37.824ZM13.3323 35.5569C14.6005 35.1347 15.3122 34.8993 15.9861 34.579L15.1275 32.7727C14.5895 33.0284 14.0127 33.2225 12.7006 33.6593L13.3323 35.5569ZM15.9871 34.5785C16.7685 34.206 17.5066 33.7498 18.1885 33.217L16.9571 31.641C16.3905 32.0837 15.7768 32.4632 15.1265 32.7732L15.9871 34.5785ZM18.1877 33.2175C18.7768 32.7581 19.3071 32.2254 20.2509 31.2816L18.8367 29.8674C17.8594 30.8446 17.4275 31.2741 16.9578 31.6404L18.1877 33.2175ZM35.9792 15.5533C37.3943 14.1382 38.1893 12.2188 38.1893 10.2175H36.1893C36.1893 11.6884 35.605 13.099 34.5649 14.1391L35.9792 15.5533ZM38.1893 10.2175C38.1893 8.21615 37.3943 6.29679 35.9792 4.88163L34.5649 6.29584C35.605 7.33593 36.1893 8.74658 36.1893 10.2175H38.1893ZM35.9792 4.88163C34.564 3.46647 32.6446 2.67145 30.6433 2.67145V4.67145C32.1142 4.67145 33.5249 5.25576 34.5649 6.29584L35.9792 4.88163ZM30.6433 2.67145C28.642 2.67145 26.7226 3.46647 25.3074 4.88163L26.7217 6.29584C27.7617 5.25576 29.1724 4.67145 30.6433 4.67145V2.67145ZM25.3074 4.88163L23.8308 6.35823L25.2451 7.77245L26.7217 6.29584L25.3074 4.88163ZM23.5919 7.38923L23.6551 7.57401L25.5473 6.92624L25.484 6.74145L23.5919 7.38923ZM23.6572 7.58005C24.4348 9.80501 25.7073 11.8244 27.3788 13.4862L28.7888 12.0678C27.332 10.6195 26.223 8.85942 25.5452 6.92021L23.6572 7.58005ZM27.3746 13.482C29.086 15.2035 31.1762 16.5011 33.4782 17.2712L34.1127 15.3745C32.1063 14.7033 30.2846 13.5724 28.793 12.072L27.3746 13.482ZM34.5026 17.0299L35.9792 15.5533L34.5649 14.1391L33.0883 15.6157L34.5026 17.0299Z" fill="white" mask="url(#path-1-inside-1_1701_462)"/>
</svg>
