<svg width="32" height="32" viewBox="0 0 32 32" fill="none" xmlns="http://www.w3.org/2000/svg">
<g clip-path="url(#clip0_1701_172)">
<path d="M15.1056 24.571L25.4597 14.2169C23.7176 13.4896 22.1356 12.427 20.8034 11.0895C19.4653 9.757 18.4021 8.17445 17.6745 6.43183L7.3205 16.7859C6.51273 17.5936 6.10815 17.9982 5.76096 18.4434C5.35092 18.9688 4.99933 19.5372 4.7124 20.1387C4.47021 20.6483 4.28961 21.1915 3.92842 22.2751L2.02169 27.9911C1.93394 28.2528 1.92092 28.5338 1.9841 28.8025C2.04728 29.0712 2.18415 29.317 2.37934 29.5121C2.57453 29.7073 2.82029 29.8442 3.089 29.9074C3.35771 29.9706 3.63871 29.9575 3.90043 29.8698L9.61642 27.9631C10.7014 27.6019 11.2432 27.4213 11.7527 27.1791C12.3547 26.8921 12.9231 26.5407 13.4481 26.1305C13.8933 25.7833 14.2979 25.3787 15.1056 24.571ZM28.3323 11.3442C29.3647 10.3119 29.9447 8.91168 29.9447 7.45169C29.9447 5.9917 29.3647 4.5915 28.3323 3.55913C27.3 2.52676 25.8998 1.94678 24.4398 1.94678C22.9798 1.94678 21.5796 2.52676 20.5472 3.55913L19.3055 4.80088L19.3587 4.95628C19.9706 6.70722 20.972 8.29642 22.2874 9.60411C23.6342 10.9588 25.279 11.98 27.0906 12.586L28.3323 11.3442Z" 
  fill="none" 
  stroke="#565252" 
  stroke-width="4"
/>
</g>
<defs>
<clipPath id="clip0_1701_172">
<rect width="32" height="32" fill="none"/>
</clipPath>
</defs>
</svg>